<?xml version="1.0" standalone="no"?>
<!DOCTYPE svg PUBLIC "-//W3C//DTD SVG 20010904//EN"
 "http://www.w3.org/TR/2001/REC-SVG-20010904/DTD/svg10.dtd">
<svg version="1.0" xmlns="http://www.w3.org/2000/svg"
 width="630.000000pt" height="320.000000pt" viewBox="0 0 630.000000 320.000000"
 preserveAspectRatio="xMidYMid meet">

<g transform="translate(0.000000,320.000000) scale(0.100000,-0.100000)"
fill="#000000" stroke="none">
<path d="M867 2183 c-52 -112 -91 -231 -108 -328 -34 -196 37 -357 190 -433
54 -26 61 -27 246 -29 l190 -3 -61 20 c-100 33 -181 115 -217 224 -44 130 0
352 114 578 16 32 29 60 29 63 0 3 -76 5 -168 5 l-169 0 -46 -97z"/>
<path d="M1240 1826 c148 -42 243 -153 265 -312 14 -105 -41 -318 -126 -486
-22 -43 -39 -80 -39 -83 0 -3 76 -5 168 -5 l169 0 46 98 c88 186 122 323 115
460 -5 104 -34 176 -99 241 -82 81 -159 101 -388 100 -143 -1 -152 -2 -111
-13z"/>
<path d="M1689 1818 c76 -26 160 -98 196 -168 38 -74 50 -162 36 -255 -14 -94
-63 -247 -119 -367 l-41 -88 168 0 169 0 40 83 c88 182 126 329 120 469 -4
110 -32 182 -95 245 -82 82 -163 103 -387 103 l-151 -1 64 -21z"/>
<path d="M2101 1821 c105 -34 171 -95 219 -203 56 -128 24 -330 -94 -581 l-45
-97 170 0 170 0 41 88 c95 206 139 397 118 514 -21 116 -90 213 -185 261 -52
26 -143 37 -299 36 l-151 0 56 -18z"/>
<path d="M2981 1407 c-68 -237 -126 -438 -128 -444 -4 -10 17 -13 84 -13 l90
0 99 344 c54 189 100 343 102 342 1 -2 -9 -150 -23 -330 -14 -179 -25 -333
-25 -341 0 -12 17 -15 88 -15 l87 0 170 340 c93 186 171 338 172 336 1 -1 -40
-152 -92 -334 -52 -182 -95 -334 -95 -337 0 -3 40 -5 89 -5 l89 0 11 33 c5 17
60 212 121 432 61 220 113 406 115 413 4 10 -23 12 -126 10 l-131 -3 -174
-335 c-202 -389 -183 -390 -159 15 8 138 15 267 15 288 l0 37 -127 0 -128 0
-124 -433z"/>
<path d="M4037 1776 c-9 -35 -17 -69 -17 -75 0 -7 29 -11 79 -11 l78 0 18 62
c9 34 19 68 22 75 4 10 -14 13 -79 13 l-84 0 -17 -64z"/>
<path d="M4452 1819 c-51 -26 -87 -75 -112 -156 l-18 -58 -44 -3 c-44 -3 -46
-4 -57 -45 -7 -23 -15 -50 -17 -59 -5 -15 2 -18 39 -18 l44 0 -73 -257 c-40
-142 -73 -261 -74 -265 0 -5 36 -8 80 -8 l79 0 20 68 c17 59 72 251 117 410
l15 52 48 0 c48 0 48 0 60 43 7 23 15 50 17 60 5 14 -2 17 -42 17 l-46 0 6 32
c11 56 32 78 75 78 38 0 38 0 55 58 9 32 16 61 16 65 0 4 -33 7 -72 7 -54 0
-84 -5 -116 -21z"/>
<path d="M5385 1828 c-9 -24 -245 -863 -245 -870 0 -5 36 -8 79 -8 67 0 80 3
85 18 3 9 57 202 121 427 64 226 118 418 121 428 5 15 -3 17 -76 17 -55 0 -82
-4 -85 -12z"/>
<path d="M4810 1603 c-132 -46 -237 -184 -284 -374 -30 -122 -13 -206 52 -261
72 -61 192 -64 304 -9 68 34 145 97 173 144 l17 27 -80 0 c-60 0 -83 -4 -93
-16 -22 -27 -86 -54 -127 -54 -73 0 -118 66 -93 132 l10 28 208 2 208 3 13 40
c20 59 26 164 13 212 -15 54 -55 101 -106 124 -50 23 -153 24 -215 2z m147
-145 c22 -18 33 -54 27 -88 l-6 -30 -124 0 -124 0 11 28 c32 85 158 138 216
90z"/>
<path d="M3986 1593 c-26 -86 -176 -625 -176 -633 0 -6 32 -10 79 -10 l79 0
91 323 c50 177 91 325 91 330 0 4 -36 7 -79 7 -67 0 -80 -3 -85 -17z"/>
</g>
</svg>
